<svg width="32" xmlns="http://www.w3.org/2000/svg" height="33.032" id="screenshot-35fc13d1-32d9-80dd-8006-90f2ebf92f4e" viewBox="0 0 32 33.032" xmlns:xlink="http://www.w3.org/1999/xlink" fill="none" version="1.1"><g id="shape-35fc13d1-32d9-80dd-8006-90f2ebf92f4e" rx="0" ry="0" style="fill: rgb(0, 0, 0);"><g id="shape-35fc13d1-32d9-80dd-8006-90f2ebf92f56" style="display: none;"><g class="fills" id="fills-35fc13d1-32d9-80dd-8006-90f2ebf92f56"><rect width="32" height="33.0322580645161" x="0" transform="matrix(1.000000, 0.000000, 0.000000, 1.000000, 0.000000, 0.000000)" style="fill: rgb(255, 255, 255); fill-opacity: 1;" ry="0" fill="none" rx="0" y="0"/></g></g><g id="shape-35fc13d1-32d9-80dd-8006-90f2ebf92f57"><g class="fills" id="fills-35fc13d1-32d9-80dd-8006-90f2ebf92f57"><path d="M10.703125,25.63857650756836C10.703125,25.767635345458984,10.5546875,25.870845794677734,10.367431640625,25.870845794677734C10.154541015625,25.890193939208984,10.006591796875,25.78701400756836,10.006591796875,25.63857650756836C10.006591796875,25.50967025756836,10.154541015625,25.406490325927734,10.341796875,25.406490325927734C10.535400390625,25.38711166381836,10.703125,25.490291595458984,10.703125,25.63857650756836ZM8.696533203125,25.348384857177734C8.6513671875,25.477291107177734,8.780517578125,25.625728607177734,8.973876953125,25.66445541381836C9.141845703125,25.72890853881836,9.335205078125,25.66445541381836,9.3740234375,25.535396575927734C9.412841796875,25.406490325927734,9.290283203125,25.258052825927734,9.0966796875,25.199947357177734C8.928955078125,25.154842376708984,8.741943359375,25.219295501708984,8.696533203125,25.348384857177734ZM11.548095703125,25.23867416381836C11.361083984375,25.283748626708984,11.232177734375,25.406490325927734,11.251708984375,25.554744720458984C11.270751953125,25.683834075927734,11.4384765625,25.767635345458984,11.632080078125,25.72256088256836C11.8193359375,25.677303314208984,11.9482421875,25.554744720458984,11.928955078125,25.425838470458984C11.909423828125,25.30312728881836,11.7353515625,25.219295501708984,11.548095703125,25.23867416381836ZM15.793212890625,0.5160170793533325C6.844970703125,0.5160170793533325,0,7.309626579284668,0,16.258052825927734C0,23.412837982177734,4.503173828125,29.535396575927734,10.935302734375,31.69033432006836C11.760986328125,31.838619232177734,12.051513671875,31.32900619506836,12.051513671875,30.90957260131836C12.051513671875,30.50967025756836,12.0322265625,28.30312728881836,12.0322265625,26.948299407958984C12.0322265625,26.948299407958984,7.515869140625,27.916072845458984,6.567626953125,25.02578353881836C6.567626953125,25.02578353881836,5.83203125,23.14834213256836,4.774169921875,22.66445541381836C4.774169921875,22.66445541381836,3.296630859375,21.651607513427734,4.877197265625,21.670955657958984C4.877197265625,21.670955657958984,6.483642578125,21.799861907958984,7.367431640625,23.33535385131836C8.780517578125,25.825740814208984,11.148193359375,25.109615325927734,12.071044921875,24.683834075927734C12.219482421875,23.651607513427734,12.638671875,22.93545150756836,13.103271484375,22.50967025756836C9.496826171875,22.109615325927734,5.858154296875,21.587154388427734,5.858154296875,15.380610466003418C5.858154296875,13.606348991394043,6.348388671875,12.716059684753418,7.380615234375,11.580622673034668C7.212890625,11.161189079284668,6.664306640625,9.432185173034668,7.548095703125,7.199946403503418C8.896728515625,6.780665397644043,12,8.941798210144043,12,8.941798210144043C13.290283203125,8.580622673034668,14.677490234375,8.393458366394043,16.051513671875,8.393458366394043C17.42578125,8.393458366394043,18.812744140625,8.580622673034668,20.103271484375,8.941798210144043C20.103271484375,8.941798210144043,23.206298828125,6.774165153503418,24.5546875,7.199946403503418C25.4384765625,9.438715934753418,24.890380859375,11.161189079284668,24.722412109375,11.580622673034668C25.754638671875,12.722559928894043,26.386962890625,13.612849235534668,26.386962890625,15.380610466003418C26.386962890625,21.60634994506836,22.5869140625,22.103084564208984,18.98046875,22.50967025756836C19.57421875,23.019283294677734,20.0771484375,23.987056732177734,20.0771484375,25.503170013427734C20.0771484375,27.677303314208984,20.057861328125,30.367733001708984,20.057861328125,30.896724700927734C20.057861328125,31.315975189208984,20.354736328125,31.825740814208984,21.174072265625,31.677303314208984C27.625732421875,29.535396575927734,32,23.412837982177734,32,16.258052825927734C32,7.309626579284668,24.741943359375,0.5160170793533325,15.793212890625,0.5160170793533325ZM6.270751953125,22.767635345458984C6.186767578125,22.832088470458984,6.206298828125,22.980525970458984,6.316162109375,23.103084564208984C6.419189453125,23.20644760131836,6.567626953125,23.251522064208984,6.6513671875,23.167720794677734C6.7353515625,23.103084564208984,6.716064453125,22.954830169677734,6.6064453125,22.832088470458984C6.503173828125,22.72890853881836,6.354736328125,22.683834075927734,6.270751953125,22.767635345458984ZM5.57421875,22.245174407958984C5.529052734375,22.32900619506836,5.593505859375,22.432186126708984,5.722412109375,22.496639251708984C5.825927734375,22.561275482177734,5.954833984375,22.54189682006836,6,22.45156478881836C6.044921875,22.367733001708984,5.98046875,22.26455307006836,5.8515625,22.199947357177734C5.722412109375,22.161190032958984,5.619140625,22.18056869506836,5.57421875,22.245174407958984ZM7.664306640625,24.54189682006836C7.561279296875,24.625728607177734,7.599853515625,24.81924057006836,7.748291015625,24.94179916381836C7.896728515625,25.09023666381836,8.083740234375,25.109615325927734,8.167724609375,25.006404876708984C8.251708984375,24.922603607177734,8.212890625,24.72890853881836,8.083740234375,24.60634994506836C7.941650390625,24.458065032958984,7.748291015625,24.438716888427734,7.664306640625,24.54189682006836ZM6.928955078125,23.593502044677734C6.825927734375,23.657955169677734,6.825927734375,23.825740814208984,6.928955078125,23.97402572631836C7.0322265625,24.122615814208984,7.206298828125,24.187068939208984,7.290283203125,24.122615814208984C7.3935546875,24.038631439208984,7.3935546875,23.870845794677734,7.290283203125,23.72256088256836C7.199951171875,23.57412338256836,7.0322265625,23.50967025756836,6.928955078125,23.593502044677734Z" style="fill: rgb(255, 255, 255); fill-opacity: 1;"/></g></g></g></svg>