<svg width="32" xmlns="http://www.w3.org/2000/svg" height="36.551" id="screenshot-35fc13d1-32d9-80dd-8006-90f2ebf92f4d" viewBox="0 -0 32 36.551" xmlns:xlink="http://www.w3.org/1999/xlink" fill="none" version="1.1"><g id="shape-35fc13d1-32d9-80dd-8006-90f2ebf92f4d" rx="0" ry="0" style="fill: rgb(0, 0, 0);"><g id="shape-35fc13d1-32d9-80dd-8006-90f2ebf92f54" style="display: none;"><g class="fills" id="fills-35fc13d1-32d9-80dd-8006-90f2ebf92f54"><rect width="31.98215205314409" height="36.55103091787902" x="0.0053541561960628314" transform="matrix(1.000000, 0.000000, 0.000000, 1.000000, 0.000000, 0.000000)" style="fill: rgb(255, 255, 255); fill-opacity: 1;" ry="0" fill="none" rx="0" y="0"/></g></g><g id="shape-35fc13d1-32d9-80dd-8006-90f2ebf92f55"><g class="fills" id="fills-35fc13d1-32d9-80dd-8006-90f2ebf92f55"><path d="M16.003662109375,10.065790176391602C11.463134765625,10.065790176391602,7.80078125,13.728052139282227,7.80078125,18.2684268951416C7.80078125,22.808618545532227,11.463134765625,26.470911026000977,16.003662109375,26.470911026000977C20.543701171875,26.470911026000977,24.2060546875,22.808618545532227,24.2060546875,18.2684268951416C24.2060546875,13.728052139282227,20.543701171875,10.065790176391602,16.003662109375,10.065790176391602ZM16.003662109375,23.601099014282227C13.0693359375,23.601099014282227,10.670654296875,21.209680557250977,10.670654296875,18.2684268951416C10.670654296875,15.327173233032227,13.062255859375,12.935571670532227,16.003662109375,12.935571670532227C18.944580078125,12.935571670532227,21.336181640625,15.327173233032227,21.336181640625,18.2684268951416C21.336181640625,21.209680557250977,18.9375,23.601099014282227,16.003662109375,23.601099014282227ZM26.454833984375,9.730340957641602C26.454833984375,10.793970108032227,25.597900390625,11.643426895141602,24.541748046875,11.643426895141602C23.477783203125,11.643426895141602,22.628173828125,10.786828994750977,22.628173828125,9.730340957641602C22.628173828125,8.673700332641602,23.485107421875,7.817102432250977,24.541748046875,7.817102432250977C25.597900390625,7.817102432250977,26.454833984375,8.673700332641602,26.454833984375,9.730340957641602ZM31.887451171875,11.672082901000977C31.765869140625,9.109247207641602,31.1806640625,6.839075088500977,29.302978515625,4.968622207641602C27.432861328125,3.0983524322509766,25.162841796875,2.5129032135009766,22.599609375,2.3843021392822266C19.958251953125,2.2343997955322266,12.041259765625,2.2343997955322266,9.400146484375,2.3843021392822266C6.844482421875,2.5057315826416016,4.57421875,3.0911808013916016,2.696533203125,4.961450576782227C0.819091796875,6.831903457641602,0.240966796875,9.102075576782227,0.1123046875,11.664911270141602C-0.037841796875,14.306360244750977,-0.037841796875,22.223352432250977,0.1123046875,24.8646183013916C0.233642578125,27.4276065826416,0.819091796875,29.69780921936035,2.696533203125,31.56804847717285C4.57421875,33.438533782958984,6.837158203125,34.023983001708984,9.400146484375,34.152400970458984C12.041259765625,34.302303314208984,19.958251953125,34.302303314208984,22.599609375,34.152400970458984C25.162841796875,34.030941009521484,27.432861328125,33.445674896240234,29.302978515625,31.56804847717285C31.173583984375,29.69780921936035,31.7587890625,27.4276065826416,31.887451171875,24.8646183013916C32.037353515625,22.223352432250977,32.037353515625,14.313501358032227,31.887451171875,11.672082901000977ZM28.474853515625,27.698755264282227C27.918212890625,29.0980167388916,26.840087890625,30.17595863342285,25.433837890625,30.73992347717285C23.327880859375,31.57525062561035,18.330810546875,31.38250160217285,16.003662109375,31.38250160217285C13.676025390625,31.38250160217285,8.671875,31.56804847717285,6.572998046875,30.73992347717285C5.173828125,30.18316078186035,4.095703125,29.105188369750977,3.531982421875,27.698755264282227C2.696533203125,25.592798233032227,2.889404296875,20.5955753326416,2.889404296875,18.2684268951416C2.889404296875,15.941125869750977,2.703857421875,10.936731338500977,3.531982421875,8.837915420532227C4.088623046875,7.438684463500977,5.166748046875,6.360712051391602,6.572998046875,5.796747207641602C8.678955078125,4.961450576782227,13.676025390625,5.154321670532227,16.003662109375,5.154321670532227C18.330810546875,5.154321670532227,23.3349609375,4.968622207641602,25.433837890625,5.796747207641602C26.8330078125,6.353540420532227,27.9111328125,7.431512832641602,28.474853515625,8.837915420532227C29.310302734375,10.943872451782227,29.117431640625,15.941125869750977,29.117431640625,18.2684268951416C29.117431640625,20.5955753326416,29.310302734375,25.5999698638916,28.474853515625,27.698755264282227Z" style="fill: rgb(255, 255, 255); fill-opacity: 1;"/></g></g></g></svg>