<svg width="32" xmlns="http://www.w3.org/2000/svg" height="36.848" id="screenshot-35fc13d1-32d9-80dd-8006-90f2ebf92f4f" viewBox="0 0 32 36.848" xmlns:xlink="http://www.w3.org/1999/xlink" fill="none" version="1.1"><g id="shape-35fc13d1-32d9-80dd-8006-90f2ebf92f4f" rx="0" ry="0" style="fill: rgb(0, 0, 0);"><g id="shape-35fc13d1-32d9-80dd-8006-90f2ebf92f58" style="display: none;"><g class="fills" id="fills-35fc13d1-32d9-80dd-8006-90f2ebf92f58"><rect width="32" height="36.84848484848487" x="0" transform="matrix(1.000000, 0.000000, 0.000000, 1.000000, 0.000000, 0.000000)" style="fill: rgb(255, 255, 255); fill-opacity: 1;" ry="0" fill="none" rx="0" y="0"/></g></g><g id="shape-35fc13d1-32d9-80dd-8006-90f2ebf92f59"><g class="fills" id="fills-35fc13d1-32d9-80dd-8006-90f2ebf92f59"><path d="M7.1640625,32.242431640625L0.5283203125,32.242431640625L0.5283203125,10.716217041015625L7.1640625,10.716217041015625ZM3.8427734375,7.779876708984375C1.721435546875,7.779876708984375,0,6.009368896484375,0,3.871978759765625C0,1.733489990234375,1.720458984375,-0.000091552734375,3.8427734375,-0.000091552734375C5.965087890625,-0.000091552734375,7.685546875,1.733489990234375,7.685546875,3.871978759765625C7.685546875,6.009368896484375,5.964111328125,7.779876708984375,3.8427734375,7.779876708984375ZM31.992919921875,32.242431640625L25.371337890625,32.242431640625L25.371337890625,21.763580322265625C25.371337890625,19.266204833984375,25.3212890625,16.063568115234375,21.921142578125,16.063568115234375C18.471435546875,16.063568115234375,17.942626953125,18.776763916015625,17.942626953125,21.583740234375L17.942626953125,32.242431640625L11.314208984375,32.242431640625L11.314208984375,10.716217041015625L17.678466796875,10.716217041015625L17.678466796875,13.652587890625L17.771484375,13.652587890625C18.656982421875,11.961334228515625,20.8212890625,10.176513671875,24.0498046875,10.176513671875C30.764404296875,10.176513671875,32,14.631439208984375,32,20.417724609375L32,32.242431640625Z" style="fill: rgb(255, 255, 255); fill-opacity: 1;"/></g></g></g></svg>