<svg width="32" xmlns="http://www.w3.org/2000/svg" height="32" id="screenshot-35fc13d1-32d9-80dd-8006-90f2ebf92f4b" viewBox="0 0 32 32" xmlns:xlink="http://www.w3.org/1999/xlink" fill="none" version="1.1"><g id="shape-35fc13d1-32d9-80dd-8006-90f2ebf92f4b" rx="0" ry="0" style="fill: rgb(0, 0, 0);"><g id="shape-35fc13d1-32d9-80dd-8006-90f2ebf92f50" style="display: none;"><g class="fills" id="fills-35fc13d1-32d9-80dd-8006-90f2ebf92f50"><rect width="32" height="32" x="0" transform="matrix(1.000000, 0.000000, 0.000000, 1.000000, 0.000000, 0.000000)" style="fill: rgb(255, 255, 255); fill-opacity: 1;" ry="0" fill="none" rx="0" y="0"/></g></g><g id="shape-35fc13d1-32d9-80dd-8006-90f2ebf92f51"><g class="fills" id="fills-35fc13d1-32d9-80dd-8006-90f2ebf92f51"><path d="M3,3.9999277591705322C1.34375,3.9999277591705322,0,5.343677997589111,0,6.999927997589111C0,7.943775653839111,0.443603515625,8.831348419189453,1.199951171875,9.400012969970703L14.7998046875,19.600025177001953C15.512451171875,20.131275177001953,16.4873046875,20.131275177001953,17.199951171875,19.600025177001953L30.7998046875,9.400012969970703C31.555908203125,8.831348419189453,32,7.943775653839111,32,6.999927997589111C32,5.343677997589111,30.65625,3.9999277591705322,29,3.9999277591705322L3,3.9999277591705322ZM0,10.999927520751953L0,23.999927520751953C0,26.206348419189453,1.793701171875,27.999927520751953,4,27.999927520751953L28,27.999927520751953C30.2060546875,27.999927520751953,32,26.206348419189453,32,23.999927520751953L32,10.999927520751953L18.399658203125,21.200000762939453C16.974853515625,22.268848419189453,15.024658203125,22.268848419189453,13.599853515625,21.200000762939453L0,10.999927520751953Z" style="fill: rgb(255, 255, 255); fill-opacity: 1;"/></g></g></g></svg>