<svg width="32" xmlns="http://www.w3.org/2000/svg" height="32" id="screenshot-35fc13d1-32d9-80dd-8006-90f2ebf92f4c" viewBox="0 0 32 32" xmlns:xlink="http://www.w3.org/1999/xlink" fill="none" version="1.1"><g id="shape-35fc13d1-32d9-80dd-8006-90f2ebf92f4c" rx="0" ry="0" style="fill: rgb(0, 0, 0);"><g id="shape-35fc13d1-32d9-80dd-8006-90f2ebf92f52" style="display: none;"><g class="fills" id="fills-35fc13d1-32d9-80dd-8006-90f2ebf92f52"><rect width="32" height="32" x="0" transform="matrix(1.000000, 0.000000, 0.000000, 1.000000, 0.000000, 0.000000)" style="fill: rgb(255, 255, 255); fill-opacity: 1;" ry="0" fill="none" rx="0" y="0"/></g></g><g id="shape-35fc13d1-32d9-80dd-8006-90f2ebf92f53"><g class="fills" id="fills-35fc13d1-32d9-80dd-8006-90f2ebf92f53"><path d="M16.037353515625,0.499927818775177C7.28125,0.499927818775177,0.5,6.893665790557861,0.5,15.537525177001953C0.5,20.056262969970703,2.356201171875,23.962512969970703,5.381103515625,26.656177520751953C5.90625,27.124927520751953,5.793701171875,27.400012969970703,5.887451171875,30.293750762939453C5.901123046875,30.705188751220703,6.117431640625,31.083118438720703,6.465087890625,31.303333282470703C6.812744140625,31.523548126220703,7.2470703125,31.557422637939453,7.625,31.393665313720703C10.930908203125,29.937427520751953,10.974853515625,29.825000762939453,11.537353515625,29.975025177001953C21.118408203125,32.6124153137207,31.5,26.481250762939453,31.5,15.537525177001953C31.5,6.893665790557861,24.787353515625,0.499927818775177,16.037353515625,0.499927818775177ZM25.3623046875,12.068775177001953L20.7998046875,19.293750762939453C20.450927734375,19.841907501220703,19.889404296875,20.220020294189453,19.250244140625,20.337329864501953C18.611328125,20.454700469970703,17.9521484375,20.300891876220703,17.430908203125,19.912525177001953L13.7998046875,17.193775177001953C13.466552734375,16.943775177001953,13.008056640625,16.943775177001953,12.6748046875,17.193775177001953L7.774658203125,20.906177520751953C7.118408203125,21.400012969970703,6.262451171875,20.618762969970703,6.7060546875,19.924915313720703L11.2685546875,12.700000762939453C11.617431640625,12.151782989501953,12.178955078125,11.773731231689453,12.818115234375,11.656360626220703C13.457275390625,11.538867950439453,14.116455078125,11.692798614501953,14.637451171875,12.081165313720703L18.2685546875,14.799915313720703C18.601806640625,15.049915313720703,19.060302734375,15.049915313720703,19.3935546875,14.799915313720703L24.293701171875,11.087512969970703C24.943603515625,10.587512969970703,25.7998046875,11.368762969970703,25.3623046875,12.062427520751953Z" style="fill: rgb(255, 255, 255); fill-opacity: 1;"/></g></g></g></svg>