<svg width="16" xmlns="http://www.w3.org/2000/svg" height="23" id="screenshot-1ef4dca4-782e-8094-8006-c702ae93f831" viewBox="0 0 16 23" xmlns:xlink="http://www.w3.org/1999/xlink" fill="none" version="1.1"><g id="shape-1ef4dca4-782e-8094-8006-c702ae93f831" rx="0" ry="0"><g id="shape-1ef4dca4-782e-8094-8006-c702bb5bbb87" rx="0" ry="0" style="fill: rgb(0, 0, 0);"><g id="shape-1ef4dca4-782e-8094-8006-c702bb5bbb88" style="display: none;"><g class="fills" id="fills-1ef4dca4-782e-8094-8006-c702bb5bbb88"><rect width="15.993752440453022" height="23" x="0.003123779773432034" transform="matrix(-1.000000, 0.000000, 0.000000, -1.000000, 16.000000, 23.000000)" style="fill: rgb(25, 25, 30); fill-opacity: 1;" ry="0" fill="none" rx="0" y="0"/></g></g><g id="shape-1ef4dca4-782e-8094-8006-c702bb5bbb89"><g class="fills" id="fills-1ef4dca4-782e-8094-8006-c702bb5bbb89"><path d="M8.941162109375,1.85986328125C8.420654296875,1.29833984375,7.5750732421875,1.29833984375,7.054443359375,1.85986328125L0.390380859375,9.04736328125C-0.1302490234375,9.60888671875,-0.1302490234375,10.520751953125,0.390380859375,11.082275390625C0.9110107421875,11.643798828125,1.756591796875,11.643798828125,2.277099609375,11.082275390625L6.6669921875,6.343017578125L6.6669921875,20.125C6.6669921875,20.920166015625,7.2628173828125,21.5625,8,21.5625C8.737060546875,21.5625,9.332763671875,20.920166015625,9.332763671875,20.125L9.332763671875,6.34765625L13.72265625,11.077880859375C14.2432861328125,11.639404296875,15.0888671875,11.639404296875,15.609619140625,11.077880859375C16.1300048828125,10.516357421875,16.1300048828125,9.6044921875,15.609619140625,9.04296875L8.945556640625,1.85546875Z" style="fill: rgb(25, 25, 30); fill-opacity: 1;"/></g></g></g></g></svg>