<svg width="23" xmlns="http://www.w3.org/2000/svg" height="17" id="screenshot-35fc13d1-32d9-80dd-8006-90f2ebf92f3d" viewBox="-3 3 23 17" xmlns:xlink="http://www.w3.org/1999/xlink" fill="none" version="1.1"><g id="shape-35fc13d1-32d9-80dd-8006-90f2ebf92f3d" rx="0" ry="0" style="fill: rgb(0, 0, 0);"><g id="shape-35fc13d1-32d9-80dd-8006-90f2ebf92f3f" style="display: none;"><g class="fills" id="fills-35fc13d1-32d9-80dd-8006-90f2ebf92f3f"><rect width="16.9933619679814" height="23" x="0.0033190160092999577" transform="matrix(0.000000, -1.000000, 1.000000, 0.000000, -3.000000, 20.000000)" style="fill: rgb(25, 25, 30); fill-opacity: 1;" ry="0" fill="none" rx="0" y="0"/></g></g><g id="shape-35fc13d1-32d9-80dd-8006-90f2ebf92f40"><g class="fills" id="fills-35fc13d1-32d9-80dd-8006-90f2ebf92f40"><path d="M18.14013671875,12.50006103515625C18.70166015625,11.94696044921875,18.70166015625,11.04852294921875,18.14013671875,10.49542236328125L10.95263671875,3.41485595703125C10.39111328125,2.86163330078125,9.479248046875,2.86163330078125,8.917724609375,3.41485595703125C8.356201171875,3.96795654296875,8.356201171875,4.86639404296875,8.917724609375,5.41949462890625L13.656982421875,10.08380126953125L-0.125,10.08380126953125C-0.920166015625,10.08380126953125,-1.5625,10.71673583984375,-1.5625,11.49993896484375C-1.5625,12.28326416015625,-0.920166015625,12.91607666015625,-0.125,12.91607666015625L13.65234375,12.91607666015625L8.922119140625,17.58038330078125C8.360595703125,18.13360595703125,8.360595703125,19.03192138671875,8.922119140625,19.58514404296875C9.483642578125,20.13824462890625,10.3955078125,20.13824462890625,10.95703125,19.58514404296875L18.14453125,12.50457763671875Z" style="fill: rgb(25, 25, 30); fill-opacity: 1;"/></g></g></g></svg>