<svg width="430" xmlns="http://www.w3.org/2000/svg" height="12" id="screenshot-1ea581b4-f544-8042-8006-c59d110af986" viewBox="-209 209 430 12" xmlns:xlink="http://www.w3.org/1999/xlink" fill="none" version="1.1"><g id="shape-1ea581b4-f544-8042-8006-c59d110af986" rx="0" ry="0"><g id="shape-1ea581b4-f544-8042-8006-c59d110af987"><g class="fills" id="fills-1ea581b4-f544-8042-8006-c59d110af987"><rect rx="0" ry="0" x="4.9999999999972715" y="5.999999999999545" transform="matrix(0.000000, 1.000000, -1.000000, 0.000000, 221.000000, 209.000000)" width="2" height="418" style="fill: rgb(255, 110, 0); fill-opacity: 1;"/></g></g><g id="shape-1ea581b4-f544-8042-8006-c59d110af988" rx="0" ry="0"><g id="shape-1ea581b4-f544-8042-8006-c59d110af98b"><g class="fills" id="fills-1ea581b4-f544-8042-8006-c59d110af98b"><ellipse cx="214.99999999999727" cy="214.99999999999955" rx="6" ry="6" transform="matrix(0.000000, 1.000000, -1.000000, 0.000000, 430.000000, 0.000000)" style="fill: rgb(255, 110, 0); fill-opacity: 1;"/></g></g><g id="shape-1ea581b4-f544-8042-8006-c59d110af98c"><g class="fills" id="fills-1ea581b4-f544-8042-8006-c59d110af98c"><ellipse cx="214.99999999999727" cy="214.99999999999955" rx="4" ry="4" transform="matrix(0.000000, 1.000000, -1.000000, 0.000000, 430.000000, 0.000000)" style="fill: rgb(22, 22, 28); fill-opacity: 1;"/></g></g></g><g id="shape-1ea581b4-f544-8042-8006-c59d110af989" rx="0" ry="0"><g id="shape-1ea581b4-f544-8042-8006-c59d110af98d"><g class="fills" id="fills-1ea581b4-f544-8042-8006-c59d110af98d"><ellipse cx="9.000000000000455" cy="214.99999999999955" rx="6" ry="6" transform="matrix(0.000000, 1.000000, -1.000000, 0.000000, 224.000000, 206.000000)" style="fill: rgb(255, 110, 0); fill-opacity: 1;"/></g></g><g id="shape-1ea581b4-f544-8042-8006-c59d110af98e"><g class="fills" id="fills-1ea581b4-f544-8042-8006-c59d110af98e"><ellipse cx="9.000000000000455" cy="214.99999999999955" rx="4" ry="4" transform="matrix(0.000000, 1.000000, -1.000000, 0.000000, 224.000000, 206.000000)" style="fill: rgb(22, 22, 28); fill-opacity: 1;"/></g></g></g><g id="shape-1ea581b4-f544-8042-8006-c59d110af98a" rx="0" ry="0"><g id="shape-1ea581b4-f544-8042-8006-c59d110af98f"><g class="fills" id="fills-1ea581b4-f544-8042-8006-c59d110af98f"><ellipse cx="-203.00000000000318" cy="214.99999999999955" rx="6" ry="6" transform="matrix(0.000000, 1.000000, -1.000000, 0.000000, 12.000000, 418.000000)" style="fill: rgb(255, 110, 0); fill-opacity: 1;"/></g></g><g id="shape-1ea581b4-f544-8042-8006-c59d110af990"><g class="fills" id="fills-1ea581b4-f544-8042-8006-c59d110af990"><ellipse cx="-203.00000000000318" cy="214.99999999999955" rx="4" ry="4" transform="matrix(0.000000, 1.000000, -1.000000, 0.000000, 12.000000, 418.000000)" style="fill: rgb(22, 22, 28); fill-opacity: 1;"/></g></g></g></g></svg>