<svg width="30" xmlns="http://www.w3.org/2000/svg" height="40" id="screenshot-35fc13d1-32d9-80dd-8006-90f2ebf92f32" viewBox="0 0 30 40" xmlns:xlink="http://www.w3.org/1999/xlink" fill="none" version="1.1"><g id="shape-35fc13d1-32d9-80dd-8006-90f2ebf92f32" rx="0" ry="0"><g id="shape-35fc13d1-32d9-80dd-8006-90f2ebf92f36" rx="0" ry="0" style="fill: rgb(0, 0, 0);"><g id="shape-35fc13d1-32d9-80dd-8006-90f2ebf92f38" style="display: none;"><g class="fills" id="fills-35fc13d1-32d9-80dd-8006-90f2ebf92f38"><rect width="29.988285825849744" height="40" x="0.00585708707512822" transform="matrix(1.000000, 0.000000, 0.000000, 1.000000, 0.000000, 0.000000)" style="fill: rgb(229, 229, 229); fill-opacity: 1;" ry="0" fill="none" rx="0" y="0"/></g></g><g id="shape-35fc13d1-32d9-80dd-8006-90f2ebf92f39"><g class="fills" id="fills-35fc13d1-32d9-80dd-8006-90f2ebf92f39"><path d="M13.235107421875,36.76556396484375C14.211181640625,37.74212646484375,15.796630859375,37.74212646484375,16.772705078125,36.76556396484375L29.267822265625,24.26556396484375C30.243896484375,23.28900146484375,30.243896484375,21.70306396484375,29.267822265625,20.72650146484375C28.291748046875,19.74993896484375,26.706298828125,19.74993896484375,25.730224609375,20.72650146484375L17.498779296875,28.96868896484375L17.498779296875,4.99993896484375C17.498779296875,3.61712646484375,16.382080078125,2.49993896484375,14.999755859375,2.49993896484375C13.617431640625,2.49993896484375,12.500732421875,3.61712646484375,12.500732421875,4.99993896484375L12.500732421875,28.96087646484375L4.269775390625,20.73431396484375C3.293701171875,19.75775146484375,1.708251953125,19.75775146484375,0.732177734375,20.73431396484375C-0.243896484375,21.71087646484375,-0.243896484375,23.29681396484375,0.732177734375,24.27337646484375L13.227294921875,36.77337646484375Z" style="fill: rgb(229, 229, 229); fill-opacity: 1;"/></g></g></g></g></svg>