<svg width="24" xmlns="http://www.w3.org/2000/svg" height="24" id="screenshot-5284c083-0187-804b-8006-bdf71c60d8c4" viewBox="0 0 24 24" xmlns:xlink="http://www.w3.org/1999/xlink" fill="none" version="1.1"><g id="shape-5284c083-0187-804b-8006-bdf71c60d8c4" rx="0" ry="0" style="fill: rgb(0, 0, 0);"><g id="shape-5284c083-0187-804b-8006-bdf71c60d8c5" style="display: none;"><g class="fills" id="fills-5284c083-0187-804b-8006-bdf71c60d8c5"><rect width="24" height="24" x="0" transform="matrix(1.000000, 0.000000, 0.000000, 1.000000, 0.000000, 0.000000)" style="fill: rgb(255, 255, 255); fill-opacity: 1;" ry="0" fill="none" rx="0" y="0"/></g></g><g id="shape-5284c083-0187-804b-8006-bdf71c60d8c6"><g class="fills" id="fills-5284c083-0187-804b-8006-bdf71c60d8c6"><path d="M14.3997802734375,2.40087890625C13.736083984375,2.40087890625,13.19989013671875,2.93603515625,13.19989013671875,3.59912109375C13.19989013671875,4.264404296875,13.736083984375,4.799560546875,14.3997802734375,4.799560546875L17.50146484375,4.799560546875L9.94891357421875,12.352294921875C9.48016357421875,12.821044921875,9.48016357421875,13.582275390625,9.94891357421875,14.051025390625C10.41766357421875,14.519775390625,11.1785888671875,14.519775390625,11.6473388671875,14.051025390625L19.19989013671875,6.49853515625L19.19989013671875,9.59912109375C19.19989013671875,10.264404296875,19.736083984375,10.799560546875,20.3997802734375,10.799560546875C21.06396484375,10.799560546875,21.6002197265625,10.264404296875,21.6002197265625,9.59912109375L21.6002197265625,3.59912109375C21.6002197265625,2.93603515625,21.06396484375,2.40087890625,20.3997802734375,2.40087890625L14.3997802734375,2.40087890625ZM5.3997802734375,6C3.7425537109375,6,2.3997802734375,7.34228515625,2.3997802734375,9L2.3997802734375,18.59912109375C2.3997802734375,20.2568359375,3.7425537109375,21.59912109375,5.3997802734375,21.59912109375L15,21.59912109375C16.65771484375,21.59912109375,18,20.2568359375,18,18.59912109375L18,15.59912109375C18,14.93603515625,17.46380615234375,14.40087890625,16.80010986328125,14.40087890625C16.13641357421875,14.40087890625,15.6002197265625,14.93603515625,15.6002197265625,15.59912109375L15.6002197265625,18.59912109375C15.6002197265625,18.9306640625,15.329833984375,19.200439453125,15,19.200439453125L5.3997802734375,19.200439453125C5.0699462890625,19.200439453125,4.80010986328125,18.9306640625,4.80010986328125,18.59912109375L4.80010986328125,9C4.80010986328125,8.670654296875,5.0699462890625,8.40087890625,5.3997802734375,8.40087890625L8.3997802734375,8.40087890625C9.06396484375,8.40087890625,9.6002197265625,7.863525390625,9.6002197265625,7.200439453125C9.6002197265625,6.537109375,9.06396484375,6,8.3997802734375,6L5.3997802734375,6Z" style="fill: rgb(255, 255, 255); fill-opacity: 1;"/></g></g></g></svg>