<svg width="232" xmlns="http://www.w3.org/2000/svg" height="12" id="screenshot-1ef4dca4-782e-8094-8006-c711ee55b721" viewBox="-110 110 232 12" xmlns:xlink="http://www.w3.org/1999/xlink" fill="none" version="1.1"><g id="shape-1ef4dca4-782e-8094-8006-c711ee55b721" rx="0" ry="0"><g id="shape-1ef4dca4-782e-8094-8006-c711ee55b722"><g class="fills" id="fills-1ef4dca4-782e-8094-8006-c711ee55b722"><rect rx="0" ry="0" x="4.999999999996817" y="5.9999999999990905" transform="matrix(0.000000, 1.000000, -1.000000, 0.000000, 122.000000, 110.000000)" width="2" height="220" style="fill: rgb(255, 110, 0); fill-opacity: 1;"/></g></g><g id="shape-1ef4dca4-782e-8094-8006-c711ee55b723" rx="0" ry="0"><g id="shape-1ef4dca4-782e-8094-8006-c711ee55b726"><g class="fills" id="fills-1ef4dca4-782e-8094-8006-c711ee55b726"><ellipse cx="115.99999999999682" cy="115.99999999999909" rx="6" ry="6" transform="matrix(0.000000, 1.000000, -1.000000, 0.000000, 232.000000, 0.000000)" style="fill: rgb(255, 110, 0); fill-opacity: 1;"/></g></g><g id="shape-1ef4dca4-782e-8094-8006-c711ee55b727"><g class="fills" id="fills-1ef4dca4-782e-8094-8006-c711ee55b727"><ellipse cx="115.99999999999682" cy="115.99999999999909" rx="4" ry="4" transform="matrix(0.000000, 1.000000, -1.000000, 0.000000, 232.000000, 0.000000)" style="fill: rgb(22, 22, 28); fill-opacity: 1;"/></g></g></g><g id="shape-1ef4dca4-782e-8094-8006-c711ee55b724" rx="0" ry="0"><g id="shape-1ef4dca4-782e-8094-8006-c711ee55b728"><g class="fills" id="fills-1ef4dca4-782e-8094-8006-c711ee55b728"><ellipse cx="6" cy="116" rx="6" ry="6" transform="matrix(0.000000, 1.000000, -1.000000, 0.000000, 122.000000, 110.000000)" style="fill: rgb(255, 110, 0); fill-opacity: 1;"/></g></g><g id="shape-1ef4dca4-782e-8094-8006-c711ee55b729"><g class="fills" id="fills-1ef4dca4-782e-8094-8006-c711ee55b729"><ellipse cx="6" cy="116" rx="4" ry="4" transform="matrix(0.000000, 1.000000, -1.000000, 0.000000, 122.000000, 110.000000)" style="fill: rgb(22, 22, 28); fill-opacity: 1;"/></g></g></g><g id="shape-1ef4dca4-782e-8094-8006-c711ee55b725" rx="0" ry="0"><g id="shape-1ef4dca4-782e-8094-8006-c711ee55b72a"><g class="fills" id="fills-1ef4dca4-782e-8094-8006-c711ee55b72a"><ellipse cx="-104.00000000000318" cy="115.99999999999909" rx="6" ry="6" transform="matrix(0.000000, 1.000000, -1.000000, 0.000000, 12.000000, 220.000000)" style="fill: rgb(255, 110, 0); fill-opacity: 1;"/></g></g><g id="shape-1ef4dca4-782e-8094-8006-c711ee55b72b"><g class="fills" id="fills-1ef4dca4-782e-8094-8006-c711ee55b72b"><ellipse cx="-104.00000000000318" cy="115.99999999999909" rx="4" ry="4" transform="matrix(0.000000, 1.000000, -1.000000, 0.000000, 12.000000, 220.000000)" style="fill: rgb(22, 22, 28); fill-opacity: 1;"/></g></g></g></g></svg>