<svg width="12" xmlns="http://www.w3.org/2000/svg" height="260" id="screenshot-f0c2263c-ca14-8048-8006-c1bbe2a97120" viewBox="0 0 12 260" xmlns:xlink="http://www.w3.org/1999/xlink" fill="none" version="1.1"><g id="shape-f0c2263c-ca14-8048-8006-c1bbe2a97120" rx="0" ry="0"><g id="shape-f0c2263c-ca14-8048-8006-c1bbe2a97121"><g class="fills" id="fills-f0c2263c-ca14-8048-8006-c1bbe2a97121"><rect rx="0" ry="0" x="5" y="6" transform="matrix(1.000000, 0.000000, 0.000000, 1.000000, 0.000000, 0.000000)" width="2" height="250" style="fill: rgb(255, 110, 0); fill-opacity: 1;"/></g></g><g id="shape-f0c2263c-ca14-8048-8006-c1bbe2a97122" rx="0" ry="0"><g id="shape-f0c2263c-ca14-8048-8006-c1bbe2a97123"><g class="fills" id="fills-f0c2263c-ca14-8048-8006-c1bbe2a97123"><ellipse cx="6" cy="6" rx="6" ry="6" transform="matrix(1.000000, 0.000000, 0.000000, 1.000000, 0.000000, 0.000000)" style="fill: rgb(255, 110, 0); fill-opacity: 1;"/></g></g><g id="shape-f0c2263c-ca14-8048-8006-c1bbe2a97124"><g class="fills" id="fills-f0c2263c-ca14-8048-8006-c1bbe2a97124"><ellipse cx="6" cy="6" rx="4" ry="4" transform="matrix(1.000000, 0.000000, 0.000000, 1.000000, 0.000000, 0.000000)" style="fill: rgb(22, 22, 28); fill-opacity: 1;"/></g></g></g><g id="shape-f0c2263c-ca14-8048-8006-c1bbec14210d" rx="0" ry="0"><g id="shape-f0c2263c-ca14-8048-8006-c1bbec14210e"><g class="fills" id="fills-f0c2263c-ca14-8048-8006-c1bbec14210e"><ellipse cx="6" cy="254" rx="6" ry="6" transform="matrix(1.000000, 0.000000, 0.000000, 1.000000, 0.000000, 0.000000)" style="fill: rgb(255, 110, 0); fill-opacity: 1;"/></g></g><g id="shape-f0c2263c-ca14-8048-8006-c1bbec14210f"><g class="fills" id="fills-f0c2263c-ca14-8048-8006-c1bbec14210f"><ellipse cx="6" cy="254" rx="4" ry="4" transform="matrix(1.000000, 0.000000, 0.000000, 1.000000, 0.000000, 0.000000)" style="fill: rgb(22, 22, 28); fill-opacity: 1;"/></g></g></g></g></svg>